<?xml version="1.0" standalone="no"?><!DOCTYPE svg PUBLIC "-//W3C//DTD SVG 1.1//EN" "http://www.w3.org/Graphics/SVG/1.1/DTD/svg11.dtd"><svg t="1642579058247" class="icon" viewBox="0 0 1024 1024" version="1.1" xmlns="http://www.w3.org/2000/svg" p-id="9571" xmlns:xlink="http://www.w3.org/1999/xlink" width="200" height="200"><defs><style type="text/css">@font-face { font-family: element-icons; src: url("chrome-extension://moombeodfomdpjnpocobemoiaemednkg/fonts/element-icons.woff") format("woff"), url("chrome-extension://moombeodfomdpjnpocobemoiaemednkg/fonts/element-icons.ttf ") format("truetype"); }
</style></defs><path d="M932.992 507.136C840.277333 311.722667 700.032 213.333333 512 213.333333c-188.117333 0-328.234667 98.346667-421.034667 293.888a59.008 59.008 0 0 0 0 50.389334c92.8 195.413333 233.045333 293.802667 421.034667 293.802666 188.117333 0 328.234667-98.346667 420.992-293.888a58.965333 58.965333 0 0 0 0-50.389333zM512 780.970667c-157.866667 0-273.450667-80.085333-354.986667-248.576C238.592 363.818667 354.133333 283.733333 512 283.733333s273.450667 80.085333 354.986667 248.576c-81.493333 168.533333-197.034667 248.576-354.986667 248.576z" p-id="9572"></path><path d="M508.074667 360.106667a172.245333 172.245333 0 1 0 0 344.533333 172.245333 172.245333 0 0 0 0-344.490667z m0 281.856a109.568 109.568 0 0 1-109.610667-109.610667c0-60.586667 49.066667-109.568 109.653333-109.568s109.568 49.024 109.568 109.568c0 60.586667-49.024 109.653333-109.610666 109.653333z" p-id="9573"></path></svg>